#!OML:ASF E:\Steps\Project 1\Capture day 1\Session 2\Subject.ASF
:FULLY-SPECIFIED
:DEGREES
228
root 8.36631 16.1894 30.7899 -153.379 0.225459 177.101
lowerback -26.0758 -1.12476 -5.88908
upperback 0.792505 0.197639 -0.737775
thorax 15.6362 -0.46148 2.57696
lowerneck -6.26397 -0.461682 -0.208812
upperneck 15.9776 -1.42081 1.30787
head 5.86898 -0.844534 0.324219
rclavicle 2.13694e-015 -5.76476e-015
rhumerus -34.9982 -17.2241 -79.1377
rradius 33.3182
rwrist 1.0668
rhand -8.06741 -55.2955
rfingers 7.12502
rthumb 17.844 275.503
lclavicle 2.13694e-015 -5.76476e-015
lhumerus -35.3726 10.6518 77.5954
lradius 27.078
lwrist -2.52599
lhand -20.8866 -13.8501
lfingers 7.12502
lthumb 5.48382 16.0589
rfemur -22.5965 6.59011 22.0829
rtibia 8.28595
rfoot -22.6036 -4.67886
rtoes -19.0483
lfemur -50.6386 -10.1791 -17.3183
ltibia 36.558
lfoot -9.01316 7.20311
ltoes -39.0354
229
root 8.3673 16.1899 30.7478 -153.665 0.301102 177.311
lowerback -25.7987 -1.07521 -5.66562
upperback 0.929988 0.187579 -0.632871
thorax 15.6465 -0.446332 2.56902
lowerneck -5.97574 -0.482112 -0.595902
upperneck 15.1953 -1.37569 1.59364
head 5.578 -0.807746 0.486297
rclavicle 4.07509e-015 -6.55989e-015
rhumerus -34.6326 -16.5993 -79.3767
rradius 33.5078
rwrist 0.687851
rhand -8.34481 -55.8323
rfingers 7.12502
rthumb 17.577 274.942
lclavicle 4.07509e-015 -6.55989e-015
lhumerus -35.3099 11.2323 77.4064
lradius 26.5673
lwrist -2.8052
lhand -20.5839 -13.3294
lfingers 7.12502
lthumb 5.77612 16.5719
rfemur -22.1178 6.89772 22.3096
rtibia 8.33686
rfoot -22.8274 -4.82034
rtoes -18.9389
lfemur -50.3108 -10.3327 -16.9485
ltibia 35.3477
lfoot -8.38869 7.19162
ltoes -37.2623
230
root 8.37804 16.1827 30.7252 -153.44 0.370203 177.294
lowerback -26.0444 -0.964995 -5.66733
upperback 1.42211 0.388523 -0.732568
thorax 15.6052 -0.349305 2.44515
lowerneck -7.20483 -0.752508 -0.555107
upperneck 16.6364 -1.85385 1.65224
head 6.2498 -1.04408 0.451358
rclavicle 3.23025e-015 -4.96962e-015
rhumerus -34.0425 -16.7602 -79.8326
rradius 33.6771
rwrist 0.624845
rhand -8.25226 -55.5716
rfingers 7.12502
rthumb 17.6661 275.211
lclavicle 3.23025e-015 -4.96962e-015
lhumerus -34.7928 11.1996 77.2454
lradius 26.1263
lwrist -2.89511
lhand -20.358 -13.2697
lfingers 7.12502
lthumb 5.99423 16.6255
rfemur -22.3332 6.96581 22.3538
rtibia 8.49257
rfoot -22.9174 -4.91316
rtoes -19.5659
lfemur -50.7109 -10.2188 -16.8205
ltibia 34.264
lfoot -7.54534 6.79801
ltoes -40.1013
231
root 8.37978 16.1789 30.682 -153.486 0.5663 177.098
lowerback -25.6711 -0.891551 -5.857
upperback 0.91078 0.513579 -0.925536
thorax 15.5226 -0.301801 2.4601
lowerneck -7.03069 -0.433414 -0.306362
upperneck 16.6524 -1.36341 1.11359
head 6.21345 -0.835649 0.276748
rclavicle -1.54058e-015 -4.77083e-015
rhumerus -34.3059 -16.5247 -80.0736
rradius 34.0103
rwrist 0.578202
rhand -7.87505 -55.2627
rfingers 7.12502
rthumb 18.0291 275.553
lclavicle -1.54058e-015 -4.77083e-015
lhumerus -35.2446 10.966 77.0324
lradius 25.9828
lwrist -2.88355
lhand -20.5939 -13.2123
lfingers 7.12502
lthumb 5.76644 16.6893
rfemur -22.0622 6.52708 22.176
rtibia 8.32175
rfoot -22.9497 -4.54098
rtoes -20.3298
lfemur -50.5938 -10.2657 -16.9752
ltibia 32.92
lfoot -6.95423 6.47678
ltoes -41.4883
232
root 8.38422 16.1673 30.6429 -153.149 0.708393 177.023
lowerback -25.7527 -0.874164 -5.99056
upperback 0.709619 0.558435 -0.987711
thorax 15.3196 -0.290284 2.48036
lowerneck -6.72463 -0.777108 -0.229599
upperneck 16.5186 -1.89893 1.3723
head 6.12423 -1.07753 0.308495
rclavicle 1.3418e-015 -2.16675e-014
rhumerus -34.4432 -16.1119 -80.3018
rradius 34.3558
rwrist 0.407162
rhand -7.43634 -54.9483
rfingers 7.12502
rthumb 18.4511 275.907
lclavicle 1.3418e-015 -2.16675e-014
lhumerus -35.5852 10.9108 76.8372
lradius 25.7806
lwrist -2.95229
lhand -20.9008 -12.6362
lfingers 7.12502
lthumb 5.47013 17.2732
rfemur -22.2715 6.30219 22.1277
rtibia 8.28093
rfoot -23.0299 -4.23794
rtoes -20.5546
lfemur -51.0061 -10.2368 -16.889
ltibia 31.7833
lfoot -6.75662 6.23241
ltoes -38.3038
233
root 8.38984 16.165 30.5999 -153.132 0.663703 177.211
lowerback -25.6929 -0.830819 -5.83623
upperback 0.715829 0.563822 -0.952819
thorax 15.2931 -0.274749 2.43491
lowerneck -6.35936 -0.93845 -0.505042
upperneck 15.8059 -2.15363 2.13212
head 5.84977 -1.1539 0.582116
rclavicle 3.18055e-015 -5.1684e-015
rhumerus -34.2061 -15.7895 -80.581
rradius 34.5241
rwrist 0.224197
rhand -7.36216 -54.7054
rfingers 7.12502
rthumb 18.5225 276.156
lclavicle 3.18055e-015 -5.1684e-015
lhumerus -35.6044 10.9423 76.6785
lradius 25.4415
lwrist -2.85298
lhand -21.0124 -12.264
lfingers 7.12502
lthumb 5.36233 17.6482
rfemur -22.0858 6.13908 22.4423
rtibia 8.23427
rfoot -23.1665 -3.983
rtoes -20.3514
lfemur -51.0087 -10.292 -16.5245
ltibia 30.6011
lfoot -6.45133 6.04451
ltoes -36.3543
